<?xml version="1.0" standalone="no"?>
<!DOCTYPE svg PUBLIC "-//W3C//DTD SVG 20010904//EN"
 "http://www.w3.org/TR/2001/REC-SVG-20010904/DTD/svg10.dtd">
<svg version="1.0" xmlns="http://www.w3.org/2000/svg"
 width="1280.000000pt" height="988.000000pt" viewBox="0 0 1280.000000 988.000000"
 preserveAspectRatio="xMidYMid meet">
<metadata>
Created by potrace 1.15, written by Peter Selinger 2001-2017
</metadata>
<g transform="translate(0.000000,988.000000) scale(0.100000,-0.100000)"
fill="#000000" stroke="none">
<path d="M10580 9861 c-426 -136 -1147 -956 -2112 -2401 -274 -411 -277 -415
-256 -431 21 -16 25 -11 236 285 833 1167 1536 1956 1909 2140 99 49 189 59
240 27 138 -87 204 -430 189 -981 -16 -632 -122 -1505 -302 -2500 -35 -195
-64 -372 -64 -392 0 -53 30 -69 59 -32 80 102 296 1067 420 1879 128 836 169
1504 116 1905 -54 415 -196 578 -435 501z"/>
<path d="M2093 9816 c-163 -53 -245 -265 -274 -707 -30 -445 51 -1281 206
-2145 130 -722 287 -1369 350 -1442 22 -24 25 -26 40 -11 8 8 16 31 16 50 1
19 -26 183 -59 364 -223 1217 -340 2343 -303 2895 24 349 84 547 186 610 120
74 361 -59 694 -385 413 -404 974 -1096 1511 -1863 85 -122 157 -221 160 -221
3 0 13 6 23 13 17 13 7 32 -154 278 -856 1306 -1604 2211 -2049 2478 -144 87
-259 115 -347 86z"/>
<path d="M4045 4805 c-105 -24 -185 -55 -340 -130 -373 -182 -783 -511 -1300
-1046 -211 -217 -430 -466 -430 -487 0 -40 39 -20 162 85 71 59 256 218 413
354 669 577 906 759 1174 900 207 109 357 146 537 135 228 -15 410 -77 567
-196 389 -293 708 -978 976 -2099 42 -173 46 -199 40 -269 -6 -67 -4 -83 15
-119 35 -69 120 -113 220 -113 45 0 47 -1 86 -62 49 -77 129 -160 173 -179 38
-17 39 -25 17 -204 -59 -491 -181 -826 -352 -974 -172 -148 -621 -272 -1168
-321 -288 -26 -270 -23 -270 -45 0 -31 87 -37 405 -31 512 11 842 67 1062 183
165 87 262 230 333 494 14 52 25 104 25 117 0 12 5 22 10 22 6 0 10 -10 10
-22 0 -36 47 -202 80 -286 38 -94 107 -199 165 -250 131 -116 395 -198 755
-237 170 -18 666 -30 760 -18 56 7 65 11 65 28 0 22 18 19 -270 45 -547 49
-996 173 -1168 321 -171 148 -293 483 -352 974 -22 179 -21 187 18 204 42 19
122 102 172 178 39 60 40 61 95 68 111 13 201 74 221 149 6 22 8 64 4 95 -5
47 1 88 40 250 269 1123 588 1808 977 2101 157 119 339 181 567 196 180 11
330 -26 537 -135 268 -141 505 -323 1174 -900 157 -136 342 -295 413 -354 123
-105 162 -125 162 -85 0 21 -219 270 -430 487 -517 535 -926 863 -1300 1046
-254 124 -364 151 -577 142 -292 -13 -541 -130 -779 -367 -168 -168 -289 -339
-419 -595 -225 -441 -392 -1059 -417 -1539 -3 -67 -8 -126 -12 -132 -4 -8 -27
1 -70 27 -126 76 -255 110 -421 110 -166 0 -295 -34 -421 -110 -43 -26 -66
-35 -70 -27 -4 6 -9 65 -12 132 -30 579 -265 1336 -551 1778 -195 301 -425
518 -669 631 -138 64 -242 86 -417 91 -109 2 -173 -1 -215 -11z"/>
<path d="M4110 4399 c-474 -124 -677 -605 -382 -907 120 -122 404 -281 583
-325 99 -25 301 -45 520 -53 266 -9 271 -8 371 77 45 38 85 75 88 82 4 6 -10
142 -31 301 -41 313 -45 324 -122 424 -121 158 -464 356 -706 408 -94 20 -231
17 -321 -7z"/>
<path d="M8365 4405 c-240 -52 -582 -251 -702 -407 -76 -99 -81 -113 -118
-399 -19 -145 -35 -280 -35 -299 0 -32 8 -42 85 -107 104 -88 107 -88 374 -79
219 8 421 28 520 53 179 44 463 203 583 325 257 264 140 678 -243 858 -141 66
-319 87 -464 55z"/>
<path d="M2305 2384 c-33 -2 -145 -8 -250 -14 -225 -13 -915 -81 -1172 -116
-387 -52 -710 -115 -720 -141 -13 -34 14 -34 183 -4 337 61 823 129 1069 150
361 31 1026 42 1320 21 719 -51 1575 -303 2273 -670 90 -47 122 -54 122 -24 0
19 -32 38 -271 159 -674 340 -1263 536 -1879 625 -74 11 -559 21 -675 14z"/>
<path d="M9965 2384 c-648 -65 -1286 -266 -2024 -639 -239 -121 -271 -140
-271 -159 0 -30 32 -23 122 24 698 367 1554 619 2273 670 294 21 959 10 1320
-21 246 -21 732 -89 1069 -150 169 -30 196 -30 183 4 -10 26 -333 89 -720 142
-220 29 -930 101 -1152 115 -168 11 -731 21 -800 14z"/>
<path d="M2590 1774 c-755 -51 -1566 -268 -2288 -614 -115 -56 -142 -72 -142
-89 0 -14 6 -21 19 -21 11 0 95 30 188 66 723 284 1582 495 2298 565 177 17
635 14 850 -5 461 -43 904 -133 1332 -271 149 -48 168 -51 179 -34 12 19 -18
36 -141 77 -486 165 -1085 284 -1610 322 -125 9 -569 11 -685 4z m-400 -104
c-266 -44 -469 -87 -735 -155 -310 -80 -321 -82 -210 -45 118 39 402 111 590
150 166 34 443 78 490 78 17 0 -44 -13 -135 -28z"/>
<path d="M9500 1769 c-519 -41 -1112 -161 -1585 -321 -123 -41 -153 -58 -141
-77 11 -17 30 -14 179 34 428 138 871 228 1332 271 215 19 673 22 850 5 716
-70 1575 -281 2298 -565 93 -36 177 -66 188 -66 13 0 19 7 19 21 0 17 -27 33
-142 89 -654 313 -1330 508 -2069 595 -159 19 -753 28 -929 14z m1153 -95
c291 -43 687 -133 902 -204 111 -37 100 -35 -210 45 -266 68 -469 111 -735
155 -210 35 -183 38 43 4z"/>
<path d="M3195 1390 c-284 -29 -497 -78 -835 -190 -435 -145 -909 -329 -1411
-548 -398 -174 -930 -429 -944 -452 -4 -6 -1 -17 5 -25 10 -12 18 -11 58 5 26
10 238 98 472 195 982 408 1923 767 2188 836 472 121 1010 128 1566 18 120
-24 337 -80 420 -108 67 -24 92 -26 102 -9 12 19 -30 44 -153 88 -231 82 -485
142 -744 175 -146 19 -591 28 -724 15z m-1086 -335 c-3 -2 -99 -40 -214 -84
-116 -43 -257 -98 -314 -120 -57 -23 -105 -40 -108 -37 -4 4 217 93 477 190
137 52 169 62 159 51z m-659 -255 c-8 -5 -19 -10 -25 -10 -5 0 -3 5 5 10 8 5
20 10 25 10 6 0 3 -5 -5 -10z m-50 -20 c-8 -5 -19 -10 -25 -10 -5 0 -3 5 5 10
8 5 20 10 25 10 6 0 3 -5 -5 -10z"/>
<path d="M9065 1393 c-294 -19 -643 -92 -928 -193 -123 -44 -165 -69 -153 -88
10 -17 35 -15 102 9 83 28 300 84 420 108 556 110 1094 103 1566 -18 265 -69
1206 -428 2188 -836 234 -97 446 -185 472 -195 40 -16 48 -17 58 -5 6 8 9 19
5 25 -8 14 -260 139 -530 265 -620 289 -1255 545 -1808 730 -354 118 -575 168
-867 195 -105 9 -404 11 -525 3z m1791 -392 c247 -91 476 -182 471 -187 -3 -3
-51 14 -108 37 -57 22 -198 77 -314 120 -189 72 -229 89 -213 89 3 0 77 -27
164 -59z m514 -201 c8 -5 11 -10 5 -10 -5 0 -17 5 -25 10 -8 5 -10 10 -5 10 6
0 17 -5 25 -10z m50 -20 c8 -5 11 -10 5 -10 -5 0 -17 5 -25 10 -8 5 -10 10 -5
10 6 0 17 -5 25 -10z"/>
</g>
</svg>
